<?xml version="1.0" encoding="utf-8"?>
<!-- Generator: Adobe Illustrator 26.0.0, SVG Export Plug-In . SVG Version: 6.00 Build 0)  -->
<svg version="1.1" id="图层_1" xmlns="http://www.w3.org/2000/svg" xmlns:xlink="http://www.w3.org/1999/xlink" x="0px" y="0px"
	 viewBox="0 0 1618 528" style="enable-background:new 0 0 1618 528;" xml:space="preserve">
<style type="text/css">
	.st0{fill:#FEFEFE;}
	.st1{fill:#940A3B;}
	.st2{fill:#2B2221;}
	.st3{fill:#332826;}
	.st4{fill:#2E2523;}
	.st5{fill:#2F2625;}
	.st6{fill:#2B2422;}
	.st7{fill:#302726;}
	.st8{fill:#2C2626;}
	.st9{fill:#2D2623;}
	.st10{fill:#2C2725;}
	.st11{fill:#27211F;}
	.st12{fill:#2D2524;}
	.st13{fill:#2E2626;}
	.st14{fill:#272020;}
	.st15{fill:#2D2726;}
	.st16{fill:#2E2928;}
	.st17{fill:#2E2827;}
	.st18{fill:#2B2525;}
	.st19{fill:#292423;}
	.st20{fill:#2E2727;}
	.st21{fill:#2E2825;}
	.st22{fill:#29201E;}
	.st23{fill:#2B2626;}
	.st24{fill:#252020;}
	.st25{fill:#2A2524;}
	.st26{fill:#2D2928;}
	.st27{fill:#2D2827;}
	.st28{fill:#302828;}
	.st29{fill:#302928;}
	.st30{fill:#302728;}
	.st31{fill:#2F2827;}
	.st32{fill:#2F2926;}
	.st33{fill:#302826;}
	.st34{fill:#2B2726;}
	.st35{fill:#2F2522;}
	.st36{fill:#3E3C3A;}
	.st37{fill:#2F2A28;}
	.st38{fill:#322D2F;}
	.st39{fill:#585252;}
	.st40{fill:#7A7674;}
	.st41{fill:#F8F7F7;}
	.st42{fill:#F3F1F1;}
	.st43{fill:#F5F5F4;}
	.st44{fill:#F5F4F3;}
	.st45{fill:#EEEDEC;}
	.st46{fill:#F0EFEE;}
	.st47{fill:#D6D3D2;}
	.st48{fill:#ACA7A6;}
	.st49{fill:#F6F5F5;}
	.st50{fill:#C8C4C1;}
	.st51{fill:#FDFDFD;}
	.st52{fill:#FCFCFC;}
	.st53{fill:#FBFBFB;}
	.st54{fill:#FCFCFB;}
	.st55{fill:#FDFCFC;}
	.st56{fill:#564D4C;}
	.st57{fill:#930B3B;}
</style>
<path class="st0" d="M808.6,528c-267.93,0-535.87-0.01-803.8,0.09c-3.66,0-4.64-0.7-4.64-4.55C0.28,350.62,0.28,177.7,0.18,4.79
	c0-3.56,0.51-4.71,4.48-4.7C541.03,0.2,1077.4,0.19,1613.77,0.1c3.5,0,4.39,0.59,4.39,4.3c-0.12,173.08-0.12,346.17,0.01,519.25
	c0,4.08-1.29,4.42-4.76,4.42C1345.14,527.99,1076.87,528,808.6,528z"/>
<path class="st1" d="M423.43,265.13c0,51.97-0.31,103.94,0.1,155.91c0.37,46.74-35.4,89.08-82.23,97.09
	c-6.27,1.07-12.53,1.57-18.87,1.57c-68.14-0.01-136.28-0.05-204.42,0.05c-44.85,0.06-83.55-26.86-97.02-67.88
	c-3.6-10.97-5.45-22.24-5.44-33.85c0.06-101.94,0.06-203.88,0.01-305.82c-0.03-55.62,43.11-100.35,98.73-100.8
	c71.14-0.56,142.28-0.47,213.42,0.07c45.77,0.35,87.07,36.84,94.53,81.85c0.88,5.3,1.18,10.57,1.18,15.89
	C423.43,161.2,423.42,213.16,423.43,265.13z"/>
<path class="st2" d="M1273.62,180.44c2.04,0.66,3.27-0.45,4.44-1.16c5.09-3.07,9.35,0.43,13.5,2.09c2.8,1.12,1.89,4.27-0.17,6.28
	c-4.5,4.41-8.57,9.17-12.34,14.22c0.21,0.28,0.49,0.76,0.56,0.73c3.51-1.46,7.46-1.21,9.55,1.45c1.99,2.54,2.16,6.43,0.86,9.98
	c-1.42,3.9-5.05,8.27-0.9,11.93c3.41,3.01,7.41-0.66,11.1-1.44c3.39-0.71,6.88-1.17,10.06-2.78c2.28-1.16,3-2.45,2.04-5.16
	c-3.52-9.97-3.36-20.64-5.39-30.9c-0.2-0.99-0.36-2.02,0.81-2.56c1.31-0.59,2.24,0.12,3,1.08c0.51,0.65,0.94,1.37,1.35,2.09
	c6.85,12,14.14,23.69,22.63,34.62c2.06,2.66,2.79,5.81,0.8,8.83c-1.94,2.95-4.68,2.76-7.95,2.05c-5.36-1.16-10.85-1.39-16.24,0.53
	c-1.84,0.66-3.9,0.76-5.87,0.94c-4.75,0.45-9.35,0.55-13.67,3.6c-2.95,2.09-7.61,1.58-10.36-0.64c-3.16-2.55-5.3-6.61-4.03-11.13
	c1.03-3.66,2.55-7.19,3.89-10.77c0.71-1.9,1.68-4.12-0.32-5.44c-1.64-1.08-2.7,1.26-4.09,1.9c-7.93,3.66-13.39,10.23-19.45,16.12
	c-1.04,1.01-2.41,1.83-3.78,2.31c-4.53,1.58-6.31,0.11-5.65-4.6c0.49-3.51,1.63-6.76,4.08-9.48c2.11-2.35,4.01-4.9,6.16-7.21
	c7.62-8.18,7.78-8.23,1.84-17.76c-1.27-2.04-0.44-2.92,0.48-4.23c2.15-3.08,5.7-4.58,8.19-7.25c2.1-2.26,4.91-4.5,1.15-7.81
	c-1.84-1.62,0.38-4.21-1.23-6.49c-6.34,3.41-11.93,7.6-15.95,13.7c-1.26,1.92-2.29,4.24-5.29,3.67c-2.72-0.51-3.02-2.79-3.54-4.88
	c-1.05-4.2-4.75-6.67-6.75-10.3c-1.37-2.49-9.25-0.01-11.19,3.37c-3.4,5.9-7.56,12.05-8.88,18.24c-1.78,8.36-5.94,16.45-4.35,25.68
	c1.52,8.82-1.64,11.78-9.57,11.44c-2.38-0.1-3.51-0.92-4.32-3.15c-1.79-4.99-4.02-9.81-5.84-14.79c-1.41-3.84-2.05-7.48,1.57-10.98
	c3.13-3.03,3.37-7.49,3.41-11.69c0.08-8.81,0-17.63,3.6-25.96c0.79-1.84,1.36-3.77,3.03-5.07c2.82-2.21,5.68-2.76,7.26,1.1
	c1.78,4.35,4.82,4.86,8.4,3.25c3.88-1.73,5.49-7.01,3.53-10.5c-2.6-4.63-5.08-9.18,0.19-13.69c0.35-0.3,0.8-0.94,0.7-1.26
	c-1.76-5.7,2.58-10.82,1.51-16.46c-0.26-1.37-0.4-2.69-1.67-3.41c-1.56-0.89-2.46,0.42-3.37,1.32c-1.65,1.64-3.53,3.16-4.79,5.08
	c-4.47,6.83-11.05,10.87-18.08,14.46c-2.18,1.11-4.1,1.24-6-0.33c-2.07-1.7-1.78-3.92-0.83-5.92c2.72-5.74,5.99-11.14,11.08-15.19
	c3.51-2.8,6.97-5.67,10.5-8.45c7.71-6.07,20.31-1.62,21.75,8.02c0.65,4.34-0.71,8.85-1.87,13.17c-0.56,2.08-1.21,4.14-1.99,6.14
	c-2.98,7.71-1.99,14.62,3.91,20.66c0.92,0.94,1.68,2.07,2.38,3.2c1.27,2.07,2.07,5.51,4.86,4.89c3.21-0.71,5.62-3.46,6.68-6.86
	c2.56-8.27,8.36-14.6,12.93-21.65c1.12-1.73,2.49-3.77,5.21-2.91c2.88,0.91,2.06,3.45,2.23,5.46c0.2,2.32,0.07,4.66,0.21,6.99
	c0.25,4.3,1.95,5.49,5.74,3.36c7.96-4.46,15.84-9.09,23.47-14.07c2.83-1.85,5.14-2.6,8.25-1.17c1.94,0.89,4.08,1.44,6.19,1.87
	c2.56,0.52,4.32,1.96,4.98,4.34c0.67,2.4-0.92,4.16-2.63,5.55c-4.9,3.98-9.81,7.97-14.87,11.76c-3.45,2.58-5.9,6.38-10.11,8.03
	c-1.49,0.58-1.46,2.01-1.35,3.41c0.16,1.98,0.17,3.98,0.32,5.97c0.31,4.35-0.72,6.92-6.04,6.13
	C1279.5,175.38,1276.36,177.45,1273.62,180.44z"/>
<path class="st3" d="M564.29,110.74c-0.01,3.88-1.1,8.21,1.52,10.02c2.83,1.95,6.39-0.98,8.95-2.79c4.87-3.45,11.68-3.12,15.57-8.34
	c0.93-1.26,2.54-0.64,3.77-0.35c4.36,1.01,8.79,1.9,13.01,3.34c5.25,1.79,6.23,8.28,2.29,13.39c-5.32,6.89-11.93,12.51-18.13,18.53
	c-1.43,1.39-3.06,2.62-4.27,4.19c-2.12,2.75-0.99,5.25,2.39,5.4c2.95,0.13,6.88-0.8,7.69,2.8c0.77,3.37-1.26,6.57-4.13,9.06
	c-2.41,2.09-4.74,3.61-7.96,4.52c-6.57,1.85-12.59,5.27-18.01,9.44c-3.94,3.03-5.51,7.86-5.25,12.37
	c0.57,9.87-3.03,18.94-4.35,28.42c-0.39,2.78-1.47,5.45-1.92,8.23c-0.85,5.27-5.24,7.47-8.75,10.39c-1.73,1.44-2.43-0.51-2.68-1.61
	c-1.24-5.49-4.36-10.41-4.38-16.29c-0.03-9.11-4.37-17.64-3.87-26.88c0.14-2.54-1.32-3.52-3.92-2.56
	c-7.07,2.61-12.1,0.22-17.48-5.08c-6.13-6.03-7.9-14.4-13.33-20.59c-0.71-0.81-1.55-2.6-1.19-3.06c3.58-4.59-0.05-7.1-2.45-10.22
	c-1.11-1.45-3.44-3.55-0.7-5.53c2.79-2.02,5.3-5.78,9.49-3.26c2.54,1.52,4.87,3.51,6.95,5.63c2.06,2.11,3.94,2.41,5.97,0.36
	c3.27-3.3,7.6-4.74,11.59-6.74c8.47-4.26,11.12-10.98,8.27-19.91c-1.2-3.77-0.51-8.1-0.32-11.88c0.25-5.03-0.31-10.88,2.71-15.32
	c2.36-3.47-0.22-7.81,3.18-10.98c2.63-2.45,5.36-2.92,8.18-0.56c2.99,2.49,3.91,6.12,5.72,9.23c1.83,3.15,3.25,6.51,5.47,9.45
	C565.77,105.99,563.92,108.74,564.29,110.74z"/>
<path class="st4" d="M937.27,116.55c3.85,1.64,5.19,3.58,5.03,7.26c-0.09,2.05,1.69,4.75,3.44,6.1c1.14,0.88,2.5-1.66,3.53-2.89
	c4.49-5.35,9.12-10.56,14.29-15.28c3.01-2.75,6.56-3.93,10.09-2.29c3.52,1.64,4.83,5.27,4.72,9.18c-0.14,4.82-0.25,9.64-0.58,14.45
	c-0.2,2.98,1.23,3.83,3.54,2.69c6.54-3.24,13.92-4.68,19.91-9.03c4.52-3.28,9-1.03,13.35,0.05c1.96,0.49,2.33,3.15,2.31,5.16
	c-0.03,2.75-2.35,3.47-4.42,4.02c-13.24,3.49-24.26,11.36-35.84,18.11c-1.27,0.74-2.61,1.69-3.38,2.89
	c-1.63,2.55-3.16,5.71-1.8,8.45c1.46,2.95,4.43,0.17,6.71,0.24c2.08,0.06,4.34-0.65,6.24-1.58c8.42-4.09,17.21-0.89,25.79-1.43
	c3.66-0.23,4.35,3.18,4.56,6.06c0.22,2.98-1.22,4.78-4.49,4.46c-3.96-0.39-7.92-0.84-11.89-1.22c-11.32-1.1-21.38,2.92-30.7,8.54
	c-4.92,2.96-4.26,9.26-4.38,14.13c-0.22,9.28,0.75,18.58,1.17,27.88c0.08,1.77,0.87,4.11-0.91,5.09c-1.89,1.05-3.76-0.67-5.45-1.64
	c-4.49-2.57-5.31-7.53-7.13-11.7c-1.78-4.07-3.7-4.03-6.49-1.37c-3.72,3.55-7.47,7.08-11.09,10.73c-5.1,5.15-8.86,4.51-11.29-2.41
	c-1.53-4.34-1.14-9.16-3.04-13.54c-1.03-2.38,2.21-2.37,3.22-3.71c0.9-1.19,3.44-1.96,2.05-3.81c-1.15-1.54-2.61,0.34-3.88,0.91
	c-2.82,1.26-4.67,4.25-8.27,4.22c-2.61-0.02-4.26-0.57-4-3.54c0.37-4.3,0.56-8.63,1.2-12.89c0.49-3.25,3.28-4.4,6.11-5.14
	c7.02-1.85,11.89-7.1,17.51-11.12c2.44-1.74,1.39-7.47-1.22-8.9c-1.38-0.76-2.06,0.59-3.02,1.07c-5.58,2.75-16.34,0.81-20.39-3.75
	c-0.42-0.47-0.75-1.15-0.82-1.77c-0.79-7.08-1.92-14.19,2.02-20.86c0.92-1.55,1.97-2.88,3.77-2.75c1.9,0.13,3.33,1.19,4.02,3.21
	c0.81,2.35,2.3,4.52,2.77,6.92c1.03,5.2,4.81,4.89,8.44,4.44c3.99-0.5,4.14-3.59,4.65-7.01
	C934.55,134.39,934.87,125.44,937.27,116.55z"/>
<path class="st5" d="M830.83,128.68c-9.44,1.06-16.77,6.11-24.03,11.15c-1.97,1.36-3.66,3.22-6.18,2.03
	c-2.5-1.18-4.19-3.21-4.46-6.16c-0.24-2.65-0.12-5.43-0.91-7.92c-1.42-4.5,1.18-4.41,3.93-3.65c15.07,4.21,28.38-0.89,41.35-7.68
	c4.49-2.35,9.08-1.52,13.65-1.05c1.65,0.17,2.59,2.13,2.79,3.78c0.24,2.01-1.59,2.83-2.99,3.6c-8.14,4.48-14.42,11.18-20.99,17.52
	c-1.03,0.99-2.45,1.87-1.62,3.93c0.39,0,0.99,0.19,1.24-0.03c6.89-5.89,13.77-3.29,20.67-0.05c1.78,0.84,2.29,2.09,2.03,4.02
	c-0.43,3.2-1.63,6.14-4.82,6.93c-11.69,2.92-21.06,10.34-31.46,15.76c-4.24,2.21-8.32,4.74-12.93,6.16c-1,0.31-2.14,0.69-1.8,1.89
	c0.52,1.89,1.66,0.56,2.71,0.37c6.82-1.27,13.33-3.88,20.09-5.12c10.08-1.85,19.08-6.76,28.9-9.21c5.88-1.47,11.86-2.59,17.91-2.66
	c2.33-0.02,6.05,0.19,5.26,4.24c-0.63,3.23-1.02,7.29-6.31,6.28c-1.6-0.31-3.35-0.25-4.96,0.04c-14.53,2.64-28.85,6.1-42.74,11.23
	c-2.04,0.75-3.72,1.54-3.57,4.06c0.18,3.14,2.29,5.11,4.5,6.88c2.19,1.76,3.22-0.61,4.5-1.65c7-5.7,14.17-10.4,24.01-8.23
	c4.54,1,6.63,3.01,6.55,7.71c-0.2,12.56-2.45,24.81-5.16,37c-0.35,1.6-1.07,3.18-1.91,4.58c-2.2,3.67-4.53,3.83-6.62,0.15
	c-2.27-4.01-5.5-6.55-9.66-8.2c-3.03-1.2-5.5-3.06-6.92-6.13c-0.41-0.88-1.01-1.97-2.12-1.87c-1.09,0.09-1.49,1.2-1.71,2.18
	c-0.76,3.33-2.58,6.76-6.03,5.92c-3.65-0.89-7.72-3.4-8.48-7.57c-0.6-3.26-1.65-6.16-3.45-8.64c-2.34-3.24-1.94-5.6,0.96-8
	c1.09-0.9,2.98-11.77,2.14-12.63c-1.51-1.54-3.47-0.68-5.08-0.23c-4.62,1.28-8.61,4.07-13.34,5.3c-9.4,2.44-17.88,7-25.76,12.68
	c-1.93,1.39-3.76,2.61-6.31,0.91c-2.42-1.61-3.51-3.82-2.75-6.34c1.81-5.95,3.66-11.84,4.43-18.07c0.21-1.7,1.35-4.53,4.38-2.46
	c3.82,2.61,7.66,1.39,11.07-0.46c9.89-5.35,20.37-9.7,29.27-16.81c1.21-0.97,2.64-1.68,2.5-3.38c-1.13-13.64,9.26-20.33,17.14-28.53
	C828.72,131.2,830.29,130.7,830.83,128.68z"/>
<path class="st6" d="M1110.84,194.7c-3.17-0.87-5.83-0.9-7.51-2.21c-3.43-2.66-4.57-6.43-2.69-10.7c0.48-1.08,1.05-2.38,0.22-3.3
	c-1.05-1.16-2.09,0.14-3.03,0.62c-1.57,0.8-3.06,1.38-4.56-0.11c-1.49-1.48-1.62-3.19-0.91-5.06c1.07-2.81,2.93-5.1,4.57-7.58
	c3.8-5.74,7.82-7.6,15.15-6.71c5.69,0.69,11.08-4.6,16.24-7.87c2.8-1.78,5.33-3.98,7.95-6.03c3.38-2.64,3.08-5.1-0.84-6.91
	c-2.36-1.09-5.16-1.5-7.33-0.63c-8.26,3.31-17.35,2.95-25.59,6c-9.66,3.58-17.89,9.41-25.05,16.8c-1.96,2.02-4.01,4.02-6.25,5.71
	c-4.94,3.72-8.23,8.65-10.93,14.05c-1.58,3.16-3.81,4.91-7.52,4.42c-3.52-0.46-3.61-3.41-4.47-5.86c-2.39-6.8-0.86-14.15-3.11-21.04
	c-0.93-2.86,3.68-7.04,8.02-7.39c4.96-0.4,8.85-2.74,12.43-5.75c2.22-1.87,4.53-3.27,7.33-4.05c4.89-1.36,8.98-4.21,13.12-7.05
	c1.12-0.77,3.8-4.56,4.19,0.93c0.13,1.79,2.13,1.16,3.29,0.73c15.24-5.71,30.98-4.71,46.71-3.47c5.73,0.45,10.45,2.9,13.15,8.48
	c2.85,5.91,2.31,9.18-3.18,12.77c-6.27,4.1-12.75,7.91-20.04,9.97c-7.81,2.21-12.8,7.45-16.06,14.6
	c-2.48,5.44,3.86,13.49,10.99,13.13c6.5-0.33,12.09,1.82,17.66,4.46c5.12,2.43,5.23,4.71,0.69,8.15c-3.57,2.71-7.35,2.34-11.4,1.43
	c-7.8-1.75-11.56,1.26-11.83,9.36c-0.25,7.22-1.3,14.46-4.1,20.95c-4,9.26-10.63,12.53-20.5,6.86c-8.1-4.66-15.24-10.29-19.45-19.12
	c-2.15-4.51-7.43-5.96-11.06-9.11c-3.08-2.67-4.87-5.7-5.86-9.53c-0.76-2.94,0.57-4.28,2.91-3.14c11.43,5.55,21.56-1.26,32.13-3.2
	C1099.42,197.36,1104.9,197.62,1110.84,194.7z"/>
<path class="st7" d="M689.74,160.67c12.27-2.47,23.32-8.18,35.26-11.44c-0.98-2.28-3.04-1.72-4.37-2.55
	c-1.31-0.81-4.05-0.42-3.72-2.51c0.34-2.18,2.72-1.23,4.27-1.13c4.48,0.3,8.95,0.83,13.43,1.02c3.65,0.16,7.31,0.33,10.94-0.58
	c1.84-0.46,3.88-0.4,4.42,1.95c0.51,2.27,0,4.59-2.49,5.34c-3.32,1-6.75,1.97-10.19,2.22c-16.9,1.23-31.95,8.62-47.64,13.9
	c-2.95,0.99-3.58,3.54-4.53,6.09c-3.61,9.69-3.63,20.31-7.9,29.84c-2.59,5.77-5.6,11.29-8.49,16.9
	c-3.78,7.32-9.95,10.11-17.41,11.36c-5.99,1-15.21-6.54-14.88-12.55c0.23-4.19,4.69-4.74,7.12-7.05c1.68-1.6,3.09-0.17,4.45,0.65
	c5.64,3.43,7.33,3.13,11.12-2.64c4.12-6.28,7.48-12.96,9.53-20.24c0.95-3.36,1.76-6.77,2.87-10.08c1-2.99-0.29-3.69-2.84-3.16
	c-4.32,0.91-8,3.2-11.45,5.84c-2.35,1.8-0.64,3.89-0.37,5.94c0.26,1.99,1.78,4.74-0.97,5.74c-2.6,0.95-4.81-0.53-5.62-3.39
	c-0.77-2.72-2.34-3.32-4.89-2.23c-11.29,4.81-23.27,7.8-34.38,13.05c-1.76,0.83-3.52,2.07-4.75,3.57
	c-3.04,3.69-6.97,3.55-10.96,2.85c-2.73-0.48-5.15-1.91-5.24-5.13c-0.09-3.22,1.64-5.27,4.81-6.11c15.74-4.18,30.96-9.99,46.4-15.1
	c3.85-1.27,5.93-2.99,2.82-7.04c-0.79-1.02-1.37-2.37-1.57-3.64c-0.78-4.93-2.57-9.36-4.55-13.98c-2.63-6.12-2.55-13.33-5.46-19.61
	c-0.5-1.07,0.01-2.02,1.15-2.33c1.82-0.5,3.3,0.06,4.18,1.8c2.38,4.75,4.84,9.46,7.04,14.29c1.31,2.87,2.73,3.89,5.59,1.79
	c6.47-4.76,13.79-7.92,21.12-11.08c5.66-2.43,9.17-8.59,7.24-14.17c-0.83-2.39-0.52-4.44-0.71-6.65c-0.4-4.62,0.08-9.24-0.62-13.9
	c-1.39-9.19,2.94-17.54,4.64-26.28c0.25-1.28,1.04-2.05,2.44-2.03c1.33,0.02,2.22,0.65,2.61,1.9c0.35,1.11,0.51,2.29,0.95,3.36
	c2.3,5.59-0.45,12.36,4.37,17.5c1.02,1.09,0.9,4.09,0.24,5.79c-2.86,7.32,0.71,14.83-0.98,22.06c-1.29,5.51,2.07,3.55,4.1,2.66
	c4.75-2.06,9.7-3.43,14.62-4.91c3.32-1,6.71-2.01,10.26-0.74c3.96,1.42,4.58,3.33,1.84,6.53c-5.23,6.13-11.82,10.7-18.19,15.52
	C699.22,151.81,694.03,155.65,689.74,160.67z"/>
<path class="st8" d="M854.76,347.85c-4.31,0-8.61,0-12.92,0c-1.85,0-2.35-0.4-2.77-2.7c-0.82-4.49-3-8.73-4.64-13.07
	c-0.61-1.63-1.85-2.17-3.55-2.1c-1.99,0.08-4,0-5.99-0.01c-11.12-0.04-11.07-0.02-14.92,10.29c-1.21,3.26-2.5,6.31,3.92,6.08
	c-0.33,0.48-0.66,0.95-1,1.43c-6.22,0-12.45,0.16-18.66-0.05c-4.9-0.17-8.88-2.38-11.91-6.35c-3.22-4.23-6.89-8.11-9.59-12.75
	c-1.26-2.18-7.87-3.73-9.8-2.4c-0.44,0.31-0.8,1.09-0.8,1.64c0.05,4.82,0.07,9.65,0.36,14.46c0.25,4.04,3.58,3.96,6.47,4.83
	c-7,0-13.99,0-20.99,0c5.88-0.68,5.05-5.17,5.07-9.08c0.05-12.15-0.14-24.31,0.1-36.46c0.09-4.82-0.84-8.17-6.65-8.2
	c9.98-0.97,19.76-1.6,29.53-0.18c5.5,0.8,9.5,3.64,11.21,9.25c1.69,5.53-0.11,10.19-3.66,14.21c-5.71,6.47-5.8,6.36-0.34,12.9
	c3.94,4.72,7.62,9.68,12.51,13.53c4.12,3.24,5.63,3.07,7.83-1.81c3.63-8.02,6.97-16.18,10.41-24.29c3.25-7.65,6.45-15.32,9.73-22.96
	c0.49-1.14,0.57-2.98,2.22-2.91c1.55,0.07,1.7,1.84,2.2,3.02c5.73,13.64,11.35,27.33,17.21,40.92
	C847.44,339.9,849,345.31,854.76,347.85z"/>
<path class="st9" d="M1095.49,127.38c8.75-3.9,14.09-10.62,21.94-13.5c5.58-2.05,9.8-5.68,13.42-10.28
	c-7.62,0.81-14.69,2.85-19.8,8.81c-2.06,2.4-3.62,6.12-7.23,4.63c-4.09-1.68-7.85-4.58-8.74-9.48c-0.38-2.11,0.16-4.78-2.34-5.54
	c-2.58-0.78-3.59,1.93-4.91,3.48c-4.41,5.18-10.23,8.51-15.91,11.87c-5.19,3.06-11.34-0.75-11.66-7.09
	c-0.19-3.88-0.81-7.55-2.01-11.22c-0.92-2.82,5.03-11.37,7.84-11.3c2.08,0.05,3.17,1.72,3.62,3.55c0.39,1.59,0.3,3.3,0.53,4.94
	c0.6,4.36,3.32,6.59,7.55,5.78c5.2-1,9.87-3,12.43-8.18c0.58-1.18,1.61-2.13,2.25-3.29c1.62-2.92,3.6-5.31,7.37-4.71
	c3.66,0.58,5.13,3.51,6.19,6.53c2.5,7.11,4.61,8.32,12.14,6.81c4.46-0.89,8.49-2.77,12.51-4.83c6.5-3.33,9.16-2.85,14.7,2.08
	c1.5,1.34,3.31,2.06,5.21,2.8c4.32,1.68,6.38,4.88,5.96,9.76c-0.42,4.91-4.26,5.42-7.64,6.26c-2.02,0.51-4.29,0.03-6.44,0.01
	c-1.99-0.02-4.22-0.61-5.93,0.09c-10.29,4.2-21.76,4.77-31.58,10.4C1102.6,127.09,1100.05,128.47,1095.49,127.38z"/>
<path class="st10" d="M668.19,383.13c8.52,17.14,16.62,33.42,25.17,50.61c8.29-17.12,16.19-33.44,24.34-50.28
	c3.27,4.2,2.61,8.85,3.31,13.01c2.33,13.76,4.15,27.6,6.38,41.38c1.33,8.19,1.86,8.49,11.17,9.77c-4.14,1.8-7.52,1.15-10.73,1.1
	c-3.29-0.05-7.47,0.47-9.57-1.29c-1.65-1.38-0.56-5.86-0.98-8.93c-1.48-10.63-2.42-21.36-5.17-33.34
	c-5.72,13.71-11.99,25.51-17.81,37.53c-0.93,1.92-1.43,4.97-3.47,5.11c-2.57,0.18-3.05-3.09-4.02-5.02
	c-5.14-10.25-10.09-20.6-15.11-30.92c-0.77-1.59-1.15-3.45-3.33-4.52c-1.47,11.99-2.87,23.78-4.37,35.57
	c-0.64,5.02,3.6,3.49,7.31,5.08c-7.61,1.22-13.87-0.22-20.35-0.06c5.45-0.07,6.59-3.54,7.24-7.81c2.54-16.78,5.25-33.53,7.85-50.3
	C666.34,387.89,666.52,385.93,668.19,383.13z"/>
<path class="st11" d="M1438.05,319.37c0.16-16.63,13.7-28.95,31.8-28.92c18.6,0.04,30.85,11.41,30.85,28.65
	c0,18.11-13.62,30.93-32.69,30.77C1450.38,349.73,1437.88,337,1438.05,319.37z"/>
<path class="st12" d="M1028.63,349.86c-17.7-0.08-30.49-12.76-30.41-30.15c0.08-16.49,13.52-29.17,31.02-29.25
	c18.55-0.09,31.52,11.46,31.57,28.12C1060.88,337.04,1047.59,349.95,1028.63,349.86z"/>
<path class="st13" d="M1111.79,293.48c6.03-1.37,11.78-1.06,17.92-0.44c-4.77,0.86-4.77,4.29-4.82,7.71
	c-0.23,14.8-0.44,29.61-0.74,44.41c-0.03,1.34,0.94,3.2-0.96,3.97c-1.66,0.67-2.75-0.7-3.85-1.71
	c-11.8-10.78-22.78-22.38-34.03-33.72c-1.84-1.86-3.37-4.03-5.04-6.06c-0.4,0.28-0.81,0.56-1.21,0.84c0,4.72-0.05,9.43,0.01,14.15
	c0.07,5.32,0.42,10.65,0.3,15.96c-0.12,5.01,1.31,8.23,7.17,8.02c-6.45,1.75-12.83,0.24-19.51,0.45c6.57,0.13,6.37-4.29,6.43-8.52
	c0.21-14.31,0.4-28.61,0.7-42.91c0.03-1.47-1.14-3.65,1-4.31c1.49-0.46,2.59,1.2,3.63,2.26c12.34,12.6,24.67,25.2,37.03,37.78
	c0.77,0.78,1.37,1.93,3.22,1.84c0-8.2,0.01-16.41-0.01-24.61c-0.01-2.33-0.15-4.66-0.19-6.99
	C1118.79,296.95,1117.7,293.2,1111.79,293.48z"/>
<path class="st6" d="M1254.21,347.15c-7.08,0-14.17,0-21.25,0c5.23-0.25,5.44-4.1,5.47-7.76c0.09-13.15-0.08-26.3,0.09-39.45
	c0.06-4.71-2.5-6.08-6.87-6.2c5.44-2,27.97-1.61,32.86,0.41c9.42,3.89,11.66,14.12,4.98,22.09c-2.05,2.45-6.39,4.07-5.77,7.36
	c0.5,2.69,3.79,4.87,5.86,7.25c2.52,2.89,5.06,5.74,7.59,8.62c3.13,3.57,6.92,6.12,11.88,7.29c-7.01,2.73-16.17,0.81-20.59-4.46
	c-3.63-4.33-7.05-8.85-10.22-13.52c-2.55-3.77-6.12-2.62-9.45-2.54c-1.56,0.04-1.32,1.66-1.3,2.78c0.05,3.33,0.29,6.66,0.23,9.98
	C1247.65,343.52,1248.82,346.82,1254.21,347.15z"/>
<path class="st14" d="M1566.32,346.88c-8.05,1.55-15.84,1.97-21.55-5.5c-3.13-4.1-6.39-8.13-9.18-12.45
	c-2.5-3.86-6.05-2.79-9.41-2.66c-1.64,0.06-1.17,1.75-1.19,2.81c-0.05,3-0.03,6,0,8.99c0.07,7.28,0.08,7.28,7.06,8.38
	c-2.95,1.46-17.22,1.68-23.61-0.13c6.95,0.43,7.26-3.27,7.26-7.18c-0.01-12.66-0.12-25.32,0.01-37.97c0.04-4.48-1.1-7.55-6.36-7.92
	c11.31-0.48,22.62-2.59,33.5,1.18c8.28,2.86,10.04,13.94,4.12,21.44c-2.08,2.64-6.59,4.42-5.88,7.89c0.58,2.84,4.02,5.1,6.21,7.61
	c2.3,2.63,4.57,5.29,6.93,7.86C1557.54,342.83,1561.06,346.1,1566.32,346.88z"/>
<path class="st15" d="M989.97,333.15c0.81,4.58-0.25,8.11-1,11.67c-0.37,1.73-1.26,2.85-3.24,3.27
	c-12.32,2.67-24.59,2.68-36.23-2.36c-14.02-6.08-20.46-19.17-18.28-35.33c1.94-14.37,12.19-24.56,27.36-26.95
	c9.65-1.52,19.25-0.53,28.8,1.13c1.49,0.26,2.88,0.46,2.81,2.64c-0.14,4.37-0.04,8.75-0.04,13.41c-2.32-0.86-1.84-2.43-2.15-3.6
	c-0.73-2.67-2.15-4.85-4.34-6.53c-9.15-7-27.22-5.33-34.95,3.24c-7.39,8.19-8.64,25.68-2.62,36.73
	c5.92,10.88,17.61,16.74,29.7,14.87C983.94,344.09,986.83,341.72,989.97,333.15z"/>
<path class="st16" d="M562.17,300.31c-4.96-10.74-10.93-14.41-24.02-14.13c-10.94,0.23-19.06,6.1-22.18,16.04
	c-5.24,16.7,0.22,32.35,14.33,40.22c7.73,4.32,16.01,4.47,24.09,1.17c4.1-1.67,6.44-5.4,7.46-11.03c1.12,5.15-0.15,8.91-0.87,12.69
	c-0.3,1.55-1.35,2.47-3.08,2.81c-13.87,2.66-27.49,2.86-40.19-4.45c-10.79-6.21-16.52-19.84-14.32-33.26
	c2.26-13.77,11.63-23.62,24.6-26.31c10.5-2.18,20.88-0.96,31.28,0.45c1.74,0.24,3.07,0.72,2.96,3.07
	C562.03,291.81,562.17,296.06,562.17,300.31z"/>
<path class="st17" d="M798.32,394.12c-5.62-0.01-5.26,3.89-5.35,7.7c-0.24,9.97,0.45,19.97-0.69,29.92
	c-1.2,10.47-5.79,15.79-16.02,18.29c-6.72,1.65-13.28,0.7-19.54-1.92c-6.43-2.69-8.52-8.43-9.54-14.76
	c-1.65-10.26-0.67-20.6-0.73-30.89c-0.03-4.79-0.54-8.39-6.53-8.33c7.08,0,14.15,0,21.23,0c-5.17,1.01-5.09,4.81-5.01,8.91
	c0.17,9.32-0.27,18.65,0.17,27.95c0.7,14.79,11.53,18.39,20.98,14.91c5.91-2.18,8.44-7.15,8.66-12.87
	c0.42-11.13,0.16-22.29,0.23-33.44c0.03-4.55-3.47-4.43-6.44-5.47C785.93,394.12,792.13,394.12,798.32,394.12z"/>
<path class="st18" d="M1346.28,347.41c-6.19,0-11.78,0-17.38,0c8.05-1.83,8.67-9.37,11.26-15.19c5.61-12.6,10.78-25.4,16.16-38.11
	c0.51-1.2,1.23-2.31,2.02-3.78c2.81,2.72,3.66,6.13,4.98,9.21c5.44,12.69,10.71,25.45,16.11,38.15c1.95,4.58,4.14,9.03,10.46,9.01
	c-0.12,0.41-0.25,0.81-0.37,1.22c-5.38,0-10.76,0.01-16.13-0.01c-1.01,0-2.13-0.08-1.98-1.53c0.54-5.14-3.15-8.95-4.22-13.58
	c-0.49-2.1-1.76-3-3.97-2.82c-1.99,0.16-3.99,0.04-5.99,0.05c-10.77,0.03-13.43,2.41-15.55,13.03
	C1340.89,347.05,1344.47,345.21,1346.28,347.41z"/>
<path class="st19" d="M1219.64,325.16c-2.12-6.4-7.46-4.83-11.84-5.02c-7.73-0.34-7.74-0.21-7.73,7.38c0.01,3.5,0.08,7,0.02,10.5
	c-0.02,1.58,0.26,2.92,1.5,4.01c5.06,4.47,18.2,1.89,21.48-5.24c0,2.09,0.05,3.12-0.01,4.14c-0.36,6.75-0.65,7.05-7.21,7.01
	c-10.29-0.07-20.6,0.39-31.19-1.19c5.42,0.32,5.44-3.37,5.46-6.83c0.07-13.83-0.13-27.66,0.12-41.48c0.1-5.82-4.58-3.69-8.24-5.12
	c13.51-1.9,26.21,0.41,38.92-1.67c0.25,3.39,0.46,7.13-1.53,12.58c0.2-8.47-4.9-7.46-9.08-7.76c-10.22-0.74-10.22-0.7-10.23,9.3
	c-0.01,10.49-0.01,10.47,10.6,10.45c3.16-0.01,6.33,0.16,9.44-2.07C1219.95,318.12,1219.8,321.64,1219.64,325.16z"/>
<path class="st16" d="M664.27,340.03c-10.75-10.54-21.49-21.09-32.89-32.27c0,8.31-0.04,15.7,0.02,23.08
	c0.02,2.83,0.31,5.65,0.41,8.48c0.15,4.34,1.41,7.59,6.7,7.71c-6.28,0-12.57,0-18.85,0c6.89,0.02,6.19-5.21,6.29-9.57
	c0.33-14.48,0.46-28.96,0.7-43.44c0.02-0.92-0.49-1.99,1.2-3.28c14.28,14.34,28.63,28.75,42.98,43.17c3.17-1.15,4.8,0.11,4.85,3.34
	c0.04,2.79,0.02,5.59-0.03,8.38c-0.01,0.96,0.22,2.11-0.86,2.63c-1.29,0.61-2.15-0.38-2.99-1.14
	C669.25,344.81,667.07,342.09,664.27,340.03z"/>
<path class="st20" d="M936.32,408.03c-4.22-10.13-9.61-13.5-21.27-12.86c-8.79,0.49-16.07,6.68-17.89,15.44
	c-2.04,9.85-1.32,19.16,5.49,27.32c6.36,7.61,16.11,10.62,25.59,7.61c3.8-1.21,4.97-2.58,7.9-9.81c0.42,4.28,0.08,7.56-0.72,10.9
	c-0.48,2.02-1.77,2.7-3.45,3.06c-9.7,2.08-19.32,1.3-28.49-2.1c-12.77-4.74-19.97-17.54-17.99-30.63
	c2.21-14.54,11.98-23.65,26.88-24.91c7.17-0.6,14.29,0.09,21.38,1.15c1.98,0.29,3.11,0.67,2.7,3.4
	C935.9,400.34,936.32,404.21,936.32,408.03z"/>
<path class="st21" d="M613.26,337.17c-0.13,1.72-0.17,2.71-0.28,3.69c-0.71,6.75-0.92,6.96-7.49,7.02
	c-5.16,0.04-10.33,0.16-15.49,0.01c-5.1-0.14-10.18-0.57-15.52-1.26c5.58,0.75,5.64-2.97,5.66-6.51
	c0.06-13.66-0.04-27.32,0.09-40.97c0.04-4.23-2.03-5.71-6.01-5.57c12.11-2.1,24.31,0.21,36.6-1.88c0.13,3.14,0.42,6.21-0.99,10.31
	c-0.4-3.19-1.59-4.54-3.77-5.08c-4.61-1.14-9.73-1.93-13.82-0.46c-5.44,1.95-1.92,7.74-2.21,11.72c-0.57,8.01-0.16,8.05,8.02,8.06
	c2.66,0,5.34,0.03,7.98-0.24c1.24-0.12,2.41-0.92,3.86-1.51c-0.12,3.49-0.94,6.87-0.56,10.58c-0.85-4.82-4.58-4.6-7.86-4.9
	c-11.66-1.07-11.66-1.04-11.54,10.46c0.01,0.67-0.05,1.34,0.05,2c0.55,3.43-2,8.13,2.16,10.04c5.39,2.47,11.34,2.11,17.06,0.21
	C611.66,342.07,611.06,339.16,613.26,337.17z"/>
<path class="st22" d="M1383.21,302.18c0-1.25-0.12-2.52,0.02-3.75c0.79-6.78,1.06-6.44,7.6-6.31c14.09,0.28,28.23,1.69,42.25-0.91
	c1.99-0.37,2.81-0.06,2.77,2.03c-0.06,2.95-0.01,5.9-0.39,9.14c-1.95-3.87-5.2-5.52-9.06-5.73c-3.64-0.2-7.32,0.06-10.97,0.23
	c-1.78,0.08-1.35,1.62-1.35,2.66c-0.01,13.31,0.02,26.63,0.03,39.94c0,5.47,2.41,8.09,8.4,6.9c-8.16,2.17-16.12,0.19-24.52,0.64
	c7.36-0.22,6.09-5.39,6.12-9.53c0.11-12.31-0.03-24.63,0.11-36.94c0.03-2.93-0.61-4.35-3.84-3.93c-2.13,0.28-4.32,0.18-6.48,0.11
	C1389.36,296.58,1385.14,296.95,1383.21,302.18z"/>
<path class="st23" d="M1280.78,292.84c6.87,0,13.74,0,21.66,0c-2.64,1.5-4.39,2.86-3.39,5.51c4.22,11.2,7.89,22.62,12.87,33.52
	c0.32,0.7,0.96,1.26,1.68,2.18c2.97-4.7,4.18-9.75,6.14-14.45c2.88-6.91,5.64-13.87,8.32-20.85c0.97-2.53,1.48-5.16-2.98-5.17
	c5.53-1.61,10.77-1.3,16.13-0.33c-4.27,0.11-5.97,2.98-7.39,6.24c-5.98,13.72-11.97,27.43-17.97,41.14
	c-0.8,1.83-1.58,3.67-2.47,5.45c-0.64,1.28-0.93,3.25-2.76,3.11c-1.42-0.1-1.8-1.78-2.31-3.01c-3.42-8.3-6.83-16.61-10.28-24.9
	c-2.87-6.91-5.8-13.8-8.68-20.71C1287.75,296.71,1285.82,293.28,1280.78,292.84z"/>
<path class="st24" d="M1557.38,293.12c6.17-0.84,12.2-0.86,19.25-0.22c-3.45,2.4-2.32,4.17-0.91,6.49
	c3.87,6.33,7.34,12.9,11.41,20.15c4.04-7.16,7.64-13.47,11.16-19.82c1.31-2.36,1.48-4.68-2.23-6.97c6.68-0.33,12.03-0.84,17.44,0.64
	c-4.37,0.73-7.07,3.42-9.22,6.97c-1.98,3.27-3.86,6.68-6.31,9.58c-7.85,9.28-8.44,20.16-7.77,31.51c0.32,5.48,4.26,4.45,7.62,5.18
	c-7.65,1.58-15.27,0.39-23.06,0.35c4.43-0.57,5.06-3.11,5.74-7c2.8-16.01-6.75-27.12-14.5-39.02
	C1563.86,297.67,1561.73,294.3,1557.38,293.12z"/>
<path class="st25" d="M1140.87,335.16c4.57,8.85,8.08,11.3,16.08,10.91c4.54-0.22,7.63-2.58,9.12-6.58c1.52-4.08,0.63-8-3.02-10.74
	c-3.72-2.8-7.69-5.26-11.42-8.05c-4.47-3.35-8.35-7.12-8.69-13.3c-0.39-7.16,3.01-12.61,9.74-15.08c6.15-2.25,12.46-1.6,18.78-1.08
	c1.93,0.16,2.1,1.39,2.14,2.7c0.09,2.95,0.03,5.9,0.03,10.25c-2.59-7.72-7.03-11.14-14.17-10.2c-4.08,0.53-7.26,2.27-8.77,6.36
	c-1.53,4.12,0.77,6.78,3.68,8.91c3.75,2.74,7.82,5.05,11.62,7.72c10.6,7.44,11.65,21.36,2.27,29.03c-5.2,4.25-20.14,5.32-25.92,2
	c-1.52-0.87-1.44-2.1-1.47-3.38C1140.83,341.48,1140.87,338.32,1140.87,335.16z"/>
<path class="st26" d="M841.09,404.53c-3.86-8.92-11.06-11.98-18.27-8.37c-5.94,2.98-6.94,8.65-2.26,13.4
	c3.44,3.48,8,5.37,11.95,8.12c7.66,5.33,10.86,12.13,9.12,19.44c-1.89,7.91-6.57,11.96-15.45,13.31c-1.31,0.2-2.65,0.21-3.98,0.23
	c-13.94,0.19-14.8-0.74-13.64-15.12c1.77,1.54,1.64,3.71,2.5,5.37c2.47,4.76,6.93,6.95,13.54,6.18c4.53-0.53,7.69-2.83,8.98-7.41
	c1.06-3.75,0.18-6.82-2.64-9.5c-3.54-3.36-7.88-5.55-11.81-8.34c-4.05-2.87-7.2-6.27-8.43-11.32c-1.81-7.46,1.51-14.17,8.73-16.8
	c6.11-2.23,12.42-1.99,18.76-1.37c2,0.2,2.97,1.14,2.9,3.23C841.02,398.33,841.09,401.07,841.09,404.53z"/>
<path class="st27" d="M602.32,447.7c-6.97,1.08-13.63-0.09-20.64,0.43c4.55-0.87,4.51-4.04,4.51-7.24c0-12.81-0.2-25.63,0.14-38.43
	c0.14-5.21-1.25-8.04-6.85-8.72c3.42,0,6.84,0.05,10.26-0.01c8.48-0.14,16.96-0.19,25.43-0.57c2.1-0.09,2.63,0.1,2.3,2.23
	c-0.38,2.39-0.38,4.84-0.56,7.52c-3.32-4.77-13.41-7.51-19.29-5.6c-1.78,0.58-1.68,1.79-1.68,3.12c0,4.66,0.13,9.32-0.03,13.97
	c-0.09,2.55,1.04,3.1,3.27,3.03c4.16-0.14,8.35,0.17,12.47-0.23c3.05-0.3,4.26,0.22,3.63,3.5c-0.33,1.74-0.06,3.59-0.06,5.79
	c-2.63-4.58-13.66-7.63-18.11-5.36c-1.56,0.8-1.18,2.23-1.17,3.49c0.01,5.49,0.1,10.98,0.14,16.47
	C596.12,445.14,597.14,448.21,602.32,447.7z"/>
<path class="st28" d="M543.2,450.04c-12.99,2.35-28.5-3.81-34.71-13.78c-7.66-12.3-6.95-28.05,1.24-39.44
	c6.71-9.33,26.34-15.58,36.81-11.94c-0.75,1.27-2.13,1.59-3.31,2.21c-3.94,2.09-8.41,0.58-12.47,1.88
	c-11.42,4.65-16.67,14.76-15.14,28.8c1.21,11.19,5.59,20.41,15.6,26.36c3.18,3.02,7.22,2.43,11.07,2.7c1.1,0.08,2.47,0.19,2.8,1.49
	C545.43,449.72,543.69,449.3,543.2,450.04z"/>
<path class="st29" d="M740.27,302.93c-3.82-5.52-15.23-8.7-20.46-6.36c-1.67,0.75-1.34,2.12-1.34,3.39c0,12.49-0.09,24.99,0.1,37.48
	c0.12,7.92,0.32,7.92,9.09,9.45c-8.66,0.91-16.13,0.27-24.09-0.14c5.56,0.22,5.37-3.49,5.38-6.87c0.07-13.16-0.02-26.32,0.12-39.48
	c0.03-3.06-1.07-3.97-4.07-4.02c-9.75-0.19-11.5,0.03-15.87,3.14c-0.99-1.19-0.18-2.46-0.18-3.64c0-3.5,0.58-4.5,5.04-3.91
	c8.86,1.17,17.95,0.76,26.94,0.62c5.6-0.09,11.32,0.75,16.79-1.36c1.99-0.77,2.64,0.22,2.57,2.19
	C740.19,296.35,740.27,299.29,740.27,302.93z"/>
<path class="st30" d="M724.27,210.94c0.08,5.7-2.44,9.63-5.97,12.73c-3.69,3.24-12.05,0.72-12.76-3.94
	c-1.22-7.94-5.78-14.37-8.83-21.46c-1.32-3.07-3.32-6-0.61-9.1c2.4-2.73,9.81-4.22,12.59-2.82c0.42,0.21,0.96,0.55,1.09,0.94
	c2.33,7.05,8.77,11.15,12.35,17.29C723.41,206.77,724.53,208.96,724.27,210.94z"/>
<path class="st31" d="M897.34,346.25c-0.62,0.51-1.16,1.29-1.86,1.47c-3.11,0.8-30.16-0.07-34.74-1.23
	c3.27-0.08,4.45-1.02,4.58-3.61c0.7-14.95,0.21-29.9,0.19-44.85c0-3.17-2.16-3.99-4.79-4.67c6.6-1.1,12.97-1.06,19.47-0.1
	c-3.74,0.53-5.2,2.35-5.14,6.16c0.2,12.46,0.18,24.93,0.01,37.39c-0.06,4.43,1.81,6.43,6.07,6.69c4.32,0.26,8.63,0.68,12.87-0.57
	C897.42,341.73,898.07,343.3,897.34,346.25z"/>
<path class="st32" d="M543.19,386.08c0.81-1.27,2.17-0.97,3.35-1.19c11.68,1.51,20.88,6.74,25.06,18.23
	c4.87,13.36,2.61,25.74-6.68,36.66c-1.06,1.24-2.45,2.19-3.69,3.28c-2.22,1.55-4.92,2.26-7.03,4l0.01-0.01
	c-1.75,0.74-3.25,0.92-3.53-1.6c0.13-0.48,0.26-1,0.63-1.33c7.67-6.91,9.65-15.73,9.71-25.72c0.06-10.06-3.64-18.07-10.43-25.03
	C549.09,389.97,544.83,389.35,543.19,386.08z"/>
<path class="st33" d="M851.92,394.04c6.84,0,13.68,0,20.52,0c-5.51,0.61-5.32,4.41-5.28,8.43c0.12,11.98,0.03,23.96,0.05,35.93
	c0.01,7.7,0.03,7.7,8.77,9.52c-8.77,1.06-16.13-0.27-23.78,0.39c5.51-1.19,5.32-5.25,5.34-9.14c0.06-12.48,0.05-24.95,0.14-37.43
	C857.71,397.74,857.21,394.33,851.92,394.04z"/>
<path class="st34" d="M1001.24,214.32c-0.03,4.44-5.53,7.93-10.09,6.31c-3.41-1.21-6.33-3.29-7.62-6.73
	c-2.25-5.99-5.93-11.1-9.55-16.23c-2.4-3.4-1.25-6.03,1.14-8.37c2.4-2.36,4.98-1.9,7.54,0.26c2.91,2.46,6.05,4.65,9.09,6.96
	C997.85,201.14,1001.28,207.58,1001.24,214.32z"/>
<path class="st35" d="M1295.96,118.63c-4.6-0.09-9.13-1.25-12.64-3.91c-3.32-2.51-2.89-7.35-4.16-11.12
	c-0.66-1.97-0.36-4.16-2.13-5.85c-1.29-1.23-1.48-3.03-0.34-4.51c1.13-1.47,2.43,0.26,3.53,0.14c6.14-0.67,9.85,2.91,13.89,6.74
	c3.55,3.36,5.63,7.27,7.06,11.7C1302.67,116.44,1300.83,118.78,1295.96,118.63z"/>
<path class="st36" d="M664.27,340.03c3.65,0.87,5.13,4.4,7.84,6.42c0.63,0.47,1.45,1.2,2.04,1.09c1.23-0.23,0.96-1.51,0.97-2.45
	c0.03-2.3,0.05-4.6-0.03-6.89c-0.09-2.71-1.43-4.26-4.27-4.28c1.17-1.21,1.02-2.7,0.98-4.21c-0.25-9.31-0.71-18.62-0.55-27.92
	c0.09-5.24-1.06-8.51-7.03-8.75c5.67,0,11.34,0,17.75,0c-4.37,1.46-4.83,4.58-4.85,8.2c-0.08,13.63-0.28,27.26-0.61,40.89
	c-0.05,2.32,1.45,5.65-1.16,6.81c-2.96,1.3-4.36-2.31-6.31-3.91C667.29,343.58,665.85,341.71,664.27,340.03z"/>
<path class="st37" d="M946.21,102.06c-2.34-0.32-4.6-1.05-2.46-4.6c3.43-5.72,6.47-11.59,7.22-18.36c0.09-0.84,0.21-1.77,1.32-1.7
	c2.18,0.12,4.43,0.39,5.71,2.44c2.81,4.51,3.46,9.09,0.86,14.11C956.24,99,952.33,101.67,946.21,102.06z"/>
<path class="st38" d="M851.44,85.41c0,6.47-7.36,12.7-13.81,11.84c-2.52-0.34-2.77-1.61-1.65-3.37c1.51-2.38,3.31-4.56,4.9-6.89
	c3.02-4.42,2.54-6.95-1.72-10.09c-1.17-0.86-3.81-1.15-2.42-3.41c1.08-1.76,3.1-2.27,5.27-1.45
	C847.8,74.24,851.44,79.36,851.44,85.41z"/>
<path class="st39" d="M551.22,445.14c0.08,2.07,1.78,1.61,3,1.91c-3.33,2.24-7.11,2.85-11.02,3c0.65-1,2.02-2.04-0.76-1.98
	c-4.31,0.09-8.84,0.66-12.23-3.06c0.51-0.44,1.13-0.91,1.76-0.74c5.99,1.54,11.97,1.61,17.99,0.21
	C550.44,444.36,550.85,444.82,551.22,445.14z"/>
<path class="st40" d="M897.34,346.25c0.06-2.28-0.79-3.65-3.34-3.32c1.79-1.67,2.57-4.02,4.11-7.11
	C899.55,340.21,899.53,343.31,897.34,346.25z"/>
<path class="st39" d="M554.21,447.05c1.61-2.63,4.33-3.3,7.03-4C559.38,445.24,556.98,446.47,554.21,447.05z"/>
<path class="st0" d="M121.96,242.72c0-3.33-0.22-6.68,0.05-9.99c0.52-6.39-1.49-11.03-6.38-15.71c-7.05-6.74-7.04-16.11-3.93-24.75
	c3.13-8.71,10.99-11.65,19.58-12.17c10.01-0.6,18.45,4.45,21.96,12.56c4.84,11.19,3.5,20.31-4.35,27.87
	c-1.83,1.76-2.76,3.55-2.74,6.08c0.05,10.66,0.09,21.33-0.07,31.99c-0.04,2.89,0.89,3.71,3.7,3.61c5.83-0.21,11.66-0.16,17.49-0.1
	c17.22,0.17,26.14,9.15,26.1,26.35c-0.01,2.41,1.12,5.89-0.82,7.03c-2.26,1.33-4.14-1.92-6.14-3.23
	c-7.03-4.63-14.87-6.51-23.12-7.07c-1.99-0.13-4.01-0.17-6-0.02c-3.59,0.27-9.19-1.73-10.34,0.76c-2.04,4.42-1.59,10.13,0.07,15.09
	c1.81,5.42,5.46,9.51,10.77,11.85c5.63,2.47,11.48,4.49,16.97,7.23c13.53,6.77,18.68,16.92,16.65,31.9
	c-2.06,15.2-8.6,28.68-16.67,41.36c-14.47,22.74-32.66,41.97-55.41,56.74c-4.77,3.1-9.45,3.61-14.68,1.99
	c-6.96-2.16-12.75-6.41-18.77-10.26c-3.36-2.15-1.58-3.56,0.75-4.95c10.44-6.24,20.6-12.88,30.19-20.38
	c18.34-14.35,35.19-30.06,46.17-51.07c0.23-0.44,0.47-0.88,0.69-1.33c7.71-15.57,5.19-21.94-11.06-28.17
	c-3.72-1.43-7.39-3-11.03-4.63c-13.22-5.93-19.91-16.1-19.75-30.66c0.04-3.83-0.04-7.67,0.22-11.49c0.21-3.03-0.83-4.05-3.91-4.1
	c-8.31-0.14-16.57-0.46-24.56-3.57c-14.26-5.55-21.33-16.4-22.15-30.98c-1.17-20.95-0.95-41.97-0.13-62.95
	c0.57-14.57,7.43-26.79,16.26-37.93c6-7.56,12.53-14.7,18.55-22.26c6.62-8.3,11.75-17.35,12.4-28.34c0.25-4.15,2.64-3.36,5.19-2.03
	c10.83,5.65,15.99,19.7,11.86,32.39c-1.94,5.97-5.3,11.12-9.6,15.6c-6,6.24-12.21,12.29-18.34,18.41
	c-11,10.96-17.13,23.87-16.73,39.72c0.29,11.49-0.09,22.99,0,34.48c0.12,15.84,9.66,25.24,25.29,25.28
	c3.98,0.01,6.25-1.02,5.92-5.66c-0.35-4.81-0.08-9.66-0.08-14.49C122.01,242.72,121.99,242.72,121.96,242.72z"/>
<path class="st0" d="M368.61,218.07c0,10.32,0.51,20.68-0.11,30.96c-1.23,20.69-13.13,32.87-33.73,35.29
	c-4.29,0.5-8.64,0.76-12.96,0.74c-2.92-0.02-3.66,1.1-3.65,3.82c0.01,6.14,0.46,12.25-0.58,18.42c-2.07,12.21-9.28,19.9-20.25,24.6
	c-4.89,2.09-9.92,3.86-14.73,6.1c-10.47,4.87-12.37,9.91-8.4,20.86c2.87,7.91,7.23,14.96,12.28,21.58
	c17.96,23.57,41.24,40.91,66.37,55.96c3.92,2.35,3.94,3.57,0.15,5.89c-4.95,3.04-9.61,6.52-15.01,8.84
	c-6.68,2.87-12.74,2.35-18.83-1.87c-18.64-12.94-34.78-28.38-47.89-46.93c-9.48-13.41-17.42-27.62-21.28-43.73
	c-4.87-20.36,0.89-33.06,19.65-40.53c4.78-1.9,9.65-3.71,14.14-6.19c7.79-4.3,12.64-16.37,10.55-24.69c-0.52-2.08-1.94-2-3.41-2.03
	c-14.41-0.31-28.81-0.59-40.64,9.83c-0.99,0.87-2.41,2.29-3.27-0.45c-2.67-8.46,1.41-21.77,8.32-27.41
	c4.36-3.56,9.4-4.91,14.84-5.01c6.66-0.13,13.33-0.27,19.99-0.02c3.42,0.13,4.2-1.15,4.15-4.28c-0.16-9.82-0.18-19.65-0.04-29.48
	c0.05-3.26-0.82-5.87-3.35-7.91c-8.41-6.76-7.93-15.71-5.38-24.64c2.83-9.93,10.28-14.76,20.35-15.67
	c9.62-0.86,18.32,3.57,21.88,10.97c4.18,8.66,2.62,20.36-4.42,26.77c-4.16,3.79-5.4,7.83-5.2,13.17c0.34,8.81,0.29,17.66,0.03,26.47
	c-0.12,4.06,1.56,5.07,5.25,5.13c14.62,0.25,24.29-7.27,25.3-21.82c1.06-15.25,1.11-30.64-0.12-45.91
	c-0.92-11.32-6.29-20.97-14.01-29.15c-6.74-7.15-14.07-13.74-20.73-20.95c-8.64-9.35-14.05-20-9.68-33.15
	c2.09-6.29,5.84-11.57,12.03-14.68c3.02-1.52,4.9-1.51,5.2,2.73c0.73,10.16,5.28,18.81,11.52,26.59
	c7.18,8.96,14.79,17.57,21.84,26.62c9.72,12.48,14.6,26.67,14.03,42.66c-0.26,7.48-0.05,14.99-0.05,22.48
	C368.72,218.07,368.66,218.07,368.61,218.07z"/>
<path class="st0" d="M207.94,354.61c0-27.81-0.08-55.62,0.07-83.43c0.03-5.01-1.1-8.06-6.34-10.14
	c-14.19-5.66-23.24-16.57-27.37-31.07c-8.02-28.13-9.31-56.65-3.26-85.36c2.7-12.84,9.63-22.82,20.96-29.63
	c2.14-1.28,4.12-2.82,6.21-4.17c6.22-4,9.43-9.72,9.61-17.07c0.13-4.99-0.08-10,0.14-14.98c0.29-6.56,4.67-9.94,12.42-9.89
	c7.2,0.05,11.59,3.69,11.83,10.05c0.22,5.98-0.03,11.94,0.67,17.94c0.6,5.24,3.07,9.02,6.91,12.19c1.28,1.06,2.64,2.06,4.08,2.86
	c18.85,10.49,25.5,27.84,27.59,48.04c2.37,22.91,1.64,45.6-4.36,67.87c-4.3,15.93-13.52,28.2-29.69,33.79
	c-5.35,1.85-5.3,5.57-5.3,9.84c0.03,54.96,0.04,109.91,0.04,164.87c0,11.37-8.43,16.58-19.11,12c-4.26-1.83-5.16-5.1-5.15-9.26
	c0.04-25.48-0.01-50.96-0.03-76.44c0-2.66,0-5.33,0-7.99C207.9,354.61,207.92,354.61,207.94,354.61z"/>
<path class="st41" d="M537.34,162.24c-1,3.5-1.97,6.95-2.99,10.39c-0.24,0.82-0.91,1.8-1.69,0.99c-2.14-2.22-4.9-4.58-4.29-7.89
	c0.66-3.63,3.83-5.85,7.19-6.76C537.46,158.46,537.07,160.95,537.34,162.24z"/>
<path class="st42" d="M568.29,143.09c-2-0.24-2.25-1.41-2.01-2.58c0.63-3.01,2.78-4.28,5.68-4.45c0.82-0.05,2,0.17,1.52,1.22
	C572.33,139.81,570.74,142.09,568.29,143.09z"/>
<path class="st43" d="M947.88,202.81c0.09,2.97-6.62,8.79-9.45,8.2c-1.04-0.22-1.3-1.03-1.09-1.86c0.83-3.16,1.44-6.44,3.71-8.99
	c1.06-1.19,2.04-2.65,4.12-1.61C946.98,199.48,947.98,200.76,947.88,202.81z"/>
<path class="st44" d="M938.41,180.98c4.85-3.61,9.68-7.23,14.55-10.8c0.77-0.57,1.82-1.41,2.66-0.69c0.61,0.53,0.84,1.72,0.89,2.64
	c0.08,1.5-0.21,3.07-1.59,3.97c-4.98,3.25-10.83,3.93-16.18,6.1C938.63,181.78,938.52,181.38,938.41,180.98z"/>
<path class="st45" d="M961.35,126.34c-0.66,3.42-1.11,6.93-3.53,9.7c-0.83,0.95-1.61,2.36-3.25,1.45c-1.74-0.96-1.66-2.54-0.68-3.83
	c2.26-3,3.7-6.72,7.23-8.66C961.61,125.38,961.69,125.83,961.35,126.34z"/>
<path class="st46" d="M956.44,154.8c-0.04,1.53-0.74,2.45-1.75,3.05c-1.26,0.75-2.56,1.58-3.95,1.95c-1.48,0.39-2.59,3.8-4.22,1.24
	c-1.31-2.06,0.64-4,2.47-5.24c1.48-1,3.07-1.92,4.74-2.53C955.1,152.77,956.34,153.25,956.44,154.8z"/>
<path class="st47" d="M950.97,188.55c1.68-0.07,2.04,1.02,2.02,2.24c-0.02,1.52-0.29,3.13-2.03,3.54c-1.35,0.32-2.21-0.78-2.39-1.96
	C948.29,190.48,949.38,189.28,950.97,188.55z"/>
<path class="st48" d="M961.35,126.34c-0.08-0.45-0.15-0.89-0.23-1.34c0.53-1.86,1.12-3.66,3.8-3.9
	C964.88,123.94,962.49,124.71,961.35,126.34z"/>
<path class="st49" d="M851,201.33c-0.42,2.22-0.96,5.81-1.84,9.32c-0.37,1.48-0.85,3.53-2.9,3.54c-2.09,0.01-3.81-1.27-4.85-3.03
	c-0.95-1.6-0.42-3.54,0.9-4.52c2.69-1.99,3.36-4.69,3.83-7.69c0.22-1.37,0.56-3.31,2.62-2.84
	C850.58,196.52,851.29,198.09,851,201.33z"/>
<path class="st50" d="M833.98,207.02c-0.82,1.85-1.07,4.17-3.09,5.3c-0.84,0.47-1.66-0.48-1.53-1.32c0.36-2.31,1.38-4.37,3.55-5.46
	C833.51,205.25,833.8,206.29,833.98,207.02z"/>
<path class="st51" d="M1111.5,213.69c0,4.23-1.35,8.18-2.78,12.06c-1.46,3.98-6.49,6.57-10.59,5.29
	c-5.57-1.74-10.65-4.55-15.09-8.43c-1.91-1.68-2.57-2.94,0.42-4.14c7.96-3.19,15.82-6.65,23.85-9.65
	C1111.24,207.36,1111.72,208.13,1111.5,213.69z"/>
<path class="st51" d="M676.77,152.4c1.32,13.17-11.19,20.74-21.55,22.11c-2.36,0.31-3.29-0.47-4.05-2.45
	c-2.99-7.85-2.83-8.57,3.69-13.84c4.92-3.98,10.49-6.96,16.08-9.81C676.99,145.33,677.3,145.64,676.77,152.4z"/>
<path class="st52" d="M716.3,132.68c-9.28,6.84-16.68,15.98-27.23,21.24c-2.18-9.73,0.6-15.08,9.72-17.28
	C704.54,135.25,709.72,131.66,716.3,132.68z"/>
<path class="st51" d="M762.14,308.59c0-1.99-0.21-4.01,0.06-5.96c0.29-2.13-1.49-5.3,1.28-6.18c2.87-0.9,6.24-0.9,9.16,0.84
	c7.59,4.5,8.65,17.83,1.82,23.37c-3.35,2.72-7.27,1.55-10.98,1.22c-1.48-0.13-1.25-1.73-1.26-2.85c-0.03-3.48-0.01-6.96-0.01-10.44
	C762.18,308.59,762.16,308.59,762.14,308.59z"/>
<path class="st53" d="M824.02,305.04c2.87,7.76,5.2,14.07,7.53,20.35c-0.3,0.29-0.51,0.67-0.73,0.67c-4.63,0-11.17,1.79-13.43-0.54
	c-2.96-3.05,2.29-7.95,3.34-12.27C821.3,310.86,822.54,308.65,824.02,305.04z"/>
<path class="st0" d="M1489.73,322.24c-0.19,2.15-0.28,4.32-0.6,6.45c-1.43,9.58-6.32,15.62-13.7,17.05
	c-8.69,1.68-17.97-2.44-22.45-10.61c-5.42-9.89-6.11-20.34-1.77-30.83c2.66-6.44,7.9-9.76,14.8-10.06
	c9.05-0.39,15.7,3.82,20.01,11.58C1488.82,310.87,1489.76,316.46,1489.73,322.24z"/>
<path class="st0" d="M1050.06,320.8c-0.09,6.48-0.39,11.48-2.89,15.97c-3.42,6.14-8.58,9.54-15.8,9.36
	c-8.2-0.2-14.33-4.08-18.26-11.06c-5.17-9.17-5.71-19.02-2.45-28.9c3.88-11.77,17.46-15.84,28.16-8.63
	C1047.59,303.46,1049.85,312.41,1050.06,320.8z"/>
<path class="st54" d="M1247.6,309.02c0-2.32-0.04-4.64,0.01-6.95c0.11-6.15,0.89-6.78,7.04-5.76c7.09,1.17,11.08,8.52,9.29,17.11
	c-1.48,7.08-6.77,10.25-14.08,8.68c-1.97-0.43-2.32-1.52-2.32-3.13c0-3.31,0-6.62,0-9.93
	C1247.56,309.02,1247.58,309.02,1247.6,309.02z"/>
<path class="st55" d="M1524.98,309.06c0-1.66-0.31-3.39,0.07-4.96c0.62-2.61-2.07-6.32,1.84-7.75c3.97-1.45,10.43,1.05,12.33,4.59
	c3.03,5.63,3.07,11.52,0.02,17.15c-2.03,3.74-9.1,5.55-12.87,3.8c-1.39-0.65-1.34-1.74-1.34-2.88c-0.02-3.32-0.01-6.63-0.01-9.95
	C1525,309.06,1524.99,309.06,1524.98,309.06z"/>
<path class="st41" d="M1356.18,305.89c3.8,6.31,4.77,12.85,7.73,18.53c0.48,0.92,0,1.57-1.04,1.72c-0.33,0.05-0.66,0.1-0.99,0.09
	c-3.99-0.06-9.33,1.43-11.64-0.58c-3.14-2.73,1.68-6.72,2.43-10.36C1353.28,312.32,1354.78,309.52,1356.18,305.89z"/>
<path class="st0" d="M551.22,445.14c-7.02,2.68-14.03,2.11-21.02-0.13c-17.04-10.81-21.44-35.53-9.32-51.48
	c2.44-3.22,5.97-4.08,9.3-5.52c7.42-0.81,14.87-1.81,20.98,4.1c13.89,14.21,15.43,34.26,4.1,49.74
	C554.08,443.47,552.34,443.78,551.22,445.14z"/>
<path class="st56" d="M551.17,392.1c-6.54-3.7-13.48-5.34-20.98-4.1c4.06-2.52,8.85-0.04,13-1.92
	C546.04,387.84,549.48,388.8,551.17,392.1z"/>
<path class="st57" d="M189.82,182.24c-0.05-10.32,0.08-20.62,2.43-30.75c0.87-3.73,2.09-7.29,3.84-10.74
	c5.64-11.07,15.22-14.03,26.68-13.42c11.56,0.61,18.77,6.95,22.44,17.49c5.74,16.5,5.67,33.67,5.11,50.82
	c-0.27,8.31-1.07,16.59-3.31,24.66c-5.16,18.64-25.51,27.54-40.85,17.5c-8.4-5.49-12.3-14-13.97-23.77
	C190.38,203.49,189.81,192.9,189.82,182.24z"/>
<path class="st0" d="M221.03,165.72c6.68-0.38,13.42,1.72,16.75,8.82c2.9,6.2,3.07,12.93-1.48,18.91c-5.06,6.65-18,8.65-27.11,4.2
	c-6.97-3.4-10.13-11.34-7.99-20.06C203.14,169.7,209.55,165.68,221.03,165.72z"/>
</svg>
